<svg id="Layer_1" data-name="Layer 1" xmlns="http://www.w3.org/2000/svg" viewBox="0 0 225.42 170.31"><defs><style>.cls-1{fill:#926c58;}.cls-2{fill:#e9d367;}.cls-3{fill:#621919;}.cls-4{fill:#7dbe6b;}.cls-5{fill:#f3f5ef;}.cls-6{fill:#3c87ba;}.cls-7{fill:#010103;}.cls-8{fill:#943f40;}.cls-9{fill:#dacbbc;}.cls-10{fill:#1d3914;}</style></defs><path class="cls-1" d="M120,13c.36-.34.71-.14,5,0,5.75.19,7.18-.11,10,0,3.31.13,8.47.34,13,3,4.76,2.79,6.76,7.08,10,14,2.68,5.72,4.29,9.17,4,14-.23,3.79-1.8,11.48-6,13C144.37,61.21,115.86,17,120,13Z" transform="translate(-7.12 -4.37)"/><path class="cls-2" d="M120,14c6.19.5,11,.82,14,1,7.74.48,11,.56,14,3a13.6,13.6,0,0,1,4,6c4.45,11.43,8.7,25.6,10,30" transform="translate(-7.12 -4.37)"/><path class="cls-3" d="M82.5,9.5c1.55-2,4.37-2.67,10-4a47,47,0,0,1,14-1,27.8,27.8,0,0,1,9,2c6.33,2.65,8.41,6.92,15,14,.64.69,4.43,4.13,12,11,19.8,18,21.27,18.29,21,20C161.63,63.26,91,52.67,88,48a12.53,12.53,0,0,1-.77-1.43C86.33,44.27,87,41.63,84,28,81.64,17.35,79.86,12.92,82.5,9.5Z" transform="translate(-7.12 -4.37)"/><path class="cls-4" d="M38,67c2.66-10.17-7.11-14.67-4.5-25.5a28.6,28.6,0,0,1,15-19,27.9,27.9,0,0,1,26,1c3.19,1.93,10,6,12,13C87,38,87.31,40.18,89,41c2.14,1,4.54-1,8.5-2.5,2.63-1,5.42-1.35,11-2a86,86,0,0,1,29,2c10,2.58,15,3.86,18,7,.75.77,2.58,2.86,4.5,2.5s2.85-3,3.5-4.5a38,38,0,0,1,13-15,25.21,25.21,0,0,1,14-4c10.26,0,17.17,6.29,19,8,10.37,9.68,10.06,23.46,10,25-.36,9.32-4.74,10.37-4,19,.49,5.66,2.6,7.88,7,18A170.67,170.67,0,0,1,229,112a58.82,58.82,0,0,1,3.5,18.5c.1,3.81.26,10.16-2,16-4.25,11-15.46,16.18-20.5,18.5-26.49,12.2-75.52,10.09-142.5-.5,0,0-41.7-6.6-55.5-26.5a29.92,29.92,0,0,1-4.5-10.5,28.22,28.22,0,0,1,1-13c1-3.64,2.29-6.18,7-14,5.61-9.31,8.42-14,12-19C35.91,69.69,37,70.79,38,67Z" transform="translate(-7.12 -4.37)"/><path class="cls-5" d="M51,26C37.76,30.6,32.3,47.55,39,59c4.85,8.29,15.44,12.59,25,10,11.49-3.11,19.57-15.63,16-28C76.37,28.42,62.44,22,51,26Z" transform="translate(-7.12 -4.37)"/><path class="cls-5" d="M184,30c12-.88,22,8.37,24,19,2.47,13-7.3,27.25-21,28-13.06.72-24.19-11.08-24-24C163.17,41.8,171.83,30.89,184,30Z" transform="translate(-7.12 -4.37)"/><path class="cls-6" d="M55,33c8.43-2,17.26,5.47,17,14a13.75,13.75,0,0,1-27,3A14,14,0,0,1,55,33Z" transform="translate(-7.12 -4.37)"/><path class="cls-6" d="M183,38a14.32,14.32,0,0,1,15,12c1.13,8-5.18,15.35-13,16a14.31,14.31,0,0,1-15-11C168.3,46.9,174.68,38.59,183,38Z" transform="translate(-7.12 -4.37)"/><path class="cls-7" d="M57,37c5.21-.49,10.73,3.39,11,9S63.37,56,58,56,47.75,51.38,48,46C48.23,41.17,52.46,37.43,57,37Z" transform="translate(-7.12 -4.37)"/><path class="cls-8" d="M8,133a294.79,294.79,0,0,1,33-29C59.74,89.89,68.07,87.22,74,86a59.39,59.39,0,0,1,24,0c7.44,1.59,11.59,4.07,25,12,43.13,25.51,40,23.37,44,26,0,0,6.93,4.55,22,13a79.63,79.63,0,0,0,13,6,78.23,78.23,0,0,0,11,3" transform="translate(-7.12 -4.37)"/><path class="cls-7" d="M183,42c5.81-.2,11,4.51,11,10s-5.17,10.22-11,10c-6.44-.24-11-6.48-9.87-12A10.55,10.55,0,0,1,183,42Z" transform="translate(-7.12 -4.37)"/><path class="cls-9" d="M8.5,132.5c.89-1.5,3.91-.6,9-1,5.59-.44,8-2,14-4,5.32-1.76,9.88-2.51,19-4A197.33,197.33,0,0,1,86,121c4.3.12,10.16.45,48.5,8.5,27.75,5.82,41.62,8.74,46,10,11.25,3.25,16.77,5.57,27,6,8,.34,13.49-.73,14.5,1.5,1.83,4-12.85,14.35-14.5,15.5C193,172.57,171.14,178.4,106,172c0,0-68.66-6.75-91.5-29.5C13.36,141.36,7,135,8.5,132.5Z" transform="translate(-7.12 -4.37)"/><path class="cls-10" d="M112,69c-.11-.32.53-.66,4-3,2.64-1.78,3.29-2.27,4-2,.87.33.64,1.36,2,3,1.14,1.37,2.11,1.63,2,2-.17.55-2.41,0-6,0C114.11,69,112.18,69.54,112,69Z" transform="translate(-7.12 -4.37)"/><path class="cls-10" d="M145,81" transform="translate(-7.12 -4.37)"/><polygon class="cls-10" points="73.88 59.63 71.88 65.63 70.88 61.63 73.88 59.63"/></svg>