<?xml version="1.0" encoding="utf-8"?>
<svg viewBox="0 0 210 211" xmlns="http://www.w3.org/2000/svg">
  <path style="fill: rgb(72, 78, 151); stroke: rgb(72, 78, 151);" d="M 41.77 124.546 C 41.77 124.546 38.603 112.452 38.061 106.255 C 37.448 99.25 36.931 91.997 38.598 85.166 C 40.307 78.163 43.602 71.383 48.068 65.724 C 52.575 60.013 64.931 51.868 64.931 51.868 L 109.075 28.878 C 109.075 28.878 124.035 23.53 129.885 18.429 C 133.446 15.324 137.912 6.746 137.912 6.746 C 137.912 6.746 152.488 10.505 157.676 15.507 C 163.772 21.384 166.743 30.128 168.81 38.34 C 171.006 47.067 169.91 56.316 169.874 65.315 C 169.858 69.281 169.362 73.234 169.311 77.199 C 169.149 89.724 170.115 114.769 170.115 114.769 C 170.115 114.769 179.191 119.899 183.454 122.885 C 187.494 125.716 192.013 128.217 195.002 132.141 C 197.483 135.398 200.709 139.415 199.862 143.421 C 197.721 153.55 185.432 158.414 177.08 164.532 C 174.719 166.261 169.449 168.872 169.449 168.872 C 169.449 168.872 152.179 181.344 142.801 186.322 C 133.441 191.291 123.835 196.374 113.472 198.594 C 104.28 200.563 94.646 200.124 85.28 199.32 C 79.947 198.862 74.557 198.024 69.533 196.177 C 64.186 194.212 57.96 192.47 54.597 187.872 C 41.881 170.489 41.77 124.546 41.77 124.546 Z"/>
  <path style="fill: rgb(216, 216, 216); stroke: rgb(0, 0, 0);" d="M 275.146 42.086"/>
  <path style="fill: rgb(216, 216, 216); stroke: rgb(0, 0, 0);" d="M 279.27 62.479"/>
  <path style="stroke: rgb(188, 64, 95); fill: rgb(188, 64, 95);" d="M 78.242 90.763 C 82.182 86.131 86.031 81.332 90.703 77.44 C 94.971 73.884 99.691 70.776 104.731 68.439 C 109.685 66.141 115.024 64.635 120.392 63.629 C 124.501 62.859 128.721 62.787 132.901 62.72 C 134.405 62.696 137.41 62.903 137.41 62.903 C 137.41 62.903 133.097 76.742 131.35 83.772 C 130.081 88.88 128.835 94.015 128.143 99.232 C 127.304 105.554 127.243 111.958 127.008 118.332 C 126.933 120.368 126.92 124.443 126.92 124.443 C 126.92 124.443 112.497 130.546 104.838 131.75 C 97.821 132.853 90.505 132.923 83.529 131.586 C 78.408 130.605 72.499 129.736 68.952 125.915 C 66.492 123.265 65.927 119.154 65.779 115.541 C 65.611 111.431 66.675 107.212 68.414 103.484 C 70.679 98.628 74.77 94.844 78.242 90.763 Z"/>
  <path style="fill: rgb(192, 153, 65); stroke: rgb(192, 153, 65);" d="M 54.899 187.51 C 54.899 187.51 63.129 190.389 67.35 191.453 C 71.095 192.397 74.881 193.347 78.735 193.611 C 82.891 193.896 87.1 193.626 91.216 192.983 C 93.514 192.624 95.765 191.965 97.959 191.193 C 101.815 189.835 105.666 188.327 109.168 186.219 C 112.349 184.304 115.253 181.914 117.926 179.338 C 121.212 176.171 123.982 172.502 126.775 168.893 C 129.11 165.875 131.48 162.852 133.374 159.539 C 135.173 156.392 137.85 149.629 137.85 149.629 L 123.442 155.917 L 109.022 162.24 L 92.594 168.18 L 76.041 170.909 L 59.468 173.512 L 47.803 175.489 L 39.034 180.099 L 34.343 183.878 L 54.899 187.51 Z"/>
  <path style="fill: rgb(249, 235, 114); stroke: rgb(249, 235, 114);" d="M 49.923 124.927 C 44.8 124.942 34.553 124.927 34.553 124.927 C 34.553 124.927 25.904 125.959 22.489 128.373 C 18.947 130.876 16.628 134.977 14.943 138.974 C 13.002 143.576 12.514 148.729 12.267 153.718 C 11.996 159.194 12.744 164.697 13.592 170.114 C 14.272 174.462 15.545 178.698 16.6 182.971 C 17.424 186.306 17.1 190.222 19.194 192.946 C 20.187 194.238 23.451 195.351 23.451 195.351 C 23.451 195.351 28.433 191.218 30.889 189.11 C 33.821 186.594 36.469 183.727 39.601 181.465 C 42.151 179.624 44.776 177.746 47.739 176.692 C 51.188 175.466 54.967 175.523 58.593 175.02 C 63.176 174.385 72.368 173.322 72.368 173.322 L 85.4 171.397 L 100.26 167.758 L 113.681 162.807 L 126.947 156.522 L 138.558 148.331 C 138.558 148.331 133.248 145.823 130.426 145.073 C 125.613 143.794 115.628 143.013 115.628 143.013 C 115.628 143.013 104.961 140.886 99.672 139.626 C 93.223 138.089 86.671 136.816 80.445 134.539 C 76.734 133.182 73.327 131.102 69.732 129.461 C 66.272 127.882 63.008 125.645 59.283 124.874 C 56.228 124.242 53.043 124.918 49.923 124.927 Z"/>
  <path style="fill: rgb(216, 216, 216); stroke: rgb(0, 0, 0);" d="M 290.048 103.9"/>
  <path style="fill: rgb(216, 216, 216); stroke: rgb(0, 0, 0);" d="M 125.783 135.29"/>
  <path style="fill: rgb(216, 216, 216); stroke: rgb(0, 0, 0);" d="M 245.05 121.774"/>
  <path style="fill: rgb(216, 216, 216); stroke: rgb(0, 0, 0);" d="M 278.546 189.021"/>
  <path style="fill: rgb(216, 216, 216); stroke: rgb(0, 0, 0);" d="M 309.217 221.711"/>
  <path style="fill: rgb(216, 216, 216); stroke: rgb(0, 0, 0);" d="M 261.693 226.534"/>
  <path style="stroke: rgb(0, 0, 0);" d="M 73.395 117.808 L 86.266 104.678 L 97.858 95.446 L 110.655 88.648 L 116.145 87.204 L 115.08 90.833 L 115.014 91.138 C 115.014 91.138 113.594 97.849 112.851 101.198 C 111.934 105.333 111.921 109.801 110.019 113.586 C 108.67 116.269 106.601 118.676 104.168 120.437 C 101.236 122.559 97.659 123.787 94.122 124.555 C 90.063 125.437 85.753 125.796 81.669 125.038 C 79.217 124.583 76.448 123.951 74.795 122.084 C 73.865 121.033 73.395 117.808 73.395 117.808 Z"/>
  <path style="fill: rgb(80, 51, 7); stroke: rgb(80, 51, 7);" d="M 38.241 139.211 C 36.792 137.725 34.002 140.107 32.442 141.476 C 30.716 142.991 29.125 147.516 29.125 147.516 C 29.125 147.516 28.305 150.1 29.211 150.555 C 31.415 151.661 35.266 146.303 35.266 146.303 C 35.266 146.303 40.031 141.046 38.241 139.211 Z"/>
  <path style="fill: rgb(216, 216, 216); stroke: rgb(0, 0, 0);" d="M 74.861 121.278 L 83.918 111.885 L 93.357 104.877 L 104.248 98.391 L 106.706 96.893 C 106.706 96.893 107.806 102.442 107.714 105.245 C 107.633 107.717 107.286 110.251 106.342 112.537 C 105.382 114.863 103.966 117.094 102.098 118.78 C 99.754 120.897 96.796 122.412 93.76 123.282 C 90.607 124.185 87.2 124.258 83.939 123.901 C 80.808 123.558 74.861 121.278 74.861 121.278 Z"/>
  <circle style="fill: rgb(72, 121, 66);" cx="92.177" cy="111.765" r="10.015"/>
  <path style="fill: rgb(216, 216, 216); stroke: rgb(0, 0, 0);" d="M 286.538 283.208"/>
  <circle style="" cx="93.007" cy="112.073" r="4.572"/>
  <path style="stroke: rgb(240, 186, 95); fill: rgb(240, 186, 95);" d="M 73.421 118.152 L 82.399 110.072 C 82.399 110.072 90.378 102.742 94.762 99.581 C 99.024 96.507 103.604 93.878 108.236 91.397 C 111.801 89.487 119.226 86.255 119.226 86.255 C 119.226 86.255 113.626 84.782 110.758 84.717 C 106.191 84.613 101.587 85.359 97.177 86.551 C 94.073 87.39 90.804 88.275 88.268 90.251 C 84.965 92.825 82.827 96.68 80.761 100.322 C 79.266 102.958 78.446 105.924 77.292 108.726 C 75.999 111.867 73.421 118.152 73.421 118.152 Z" transform="matrix(0.99997, 0.0077, -0.0077, 0.99997, 0.783865, -0.738684)"/>
  <path style="fill: rgb(216, 216, 216); stroke: rgb(0, 0, 0);" d="M 197.437 129.979"/>
  <path style="stroke: rgb(0, 0, 0);" d="M 82.399 111.331 C 85.793 108.023 89.333 104.949 93 102.155 C 94.196 101.244 97.517 102.406 97.517 102.406 L 81.823 113.972 C 81.823 113.972 81.769 111.945 82.399 111.331 Z"/>
  <path style="fill: rgb(150, 147, 147); stroke: rgb(150, 147, 147);" d="M 170.25 66.274 C 170.25 66.274 175.938 71.955 176.633 75.68 C 177.051 77.92 175.094 82.34 175.094 82.34 L 165.773 81.495 L 164.629 80.607 L 170.25 66.274 Z"/>
  <path style="stroke: rgb(139, 136, 130); fill: rgb(139, 136, 130);" d="M 132.667 85.445 L 140.756 80.316 L 161.927 75.999 L 176.057 79.483 L 184.064 110.607 L 176.52 118.56 L 144.923 126.592 L 132.667 85.445 Z"/>
  <path style="fill: rgb(216, 216, 216); stroke: rgb(0, 0, 0);" d="M 320.385 129.655"/>
  <path style="fill: rgb(216, 216, 216); stroke: rgb(0, 0, 0);" d="M 281.424 114.971"/>
  <path style="fill: rgb(216, 216, 216); stroke: rgb(0, 0, 0);" d="M 213.577 146.107"/>
  <path style="fill: rgb(80, 77, 84); stroke: rgb(80, 77, 84);" d="M 139.173 80.967 L 150.749 82.704 L 153.438 91.098 L 161.427 94.928 L 163.812 102.129 L 159.175 108.54 L 160.303 117.484 L 151.007 125.438 L 144.127 126.606 L 131.792 85.64 L 139.173 80.967 Z"/>
  <path style="fill: rgb(216, 216, 216); stroke: rgb(0, 0, 0);" d="M 212.186 118.885"/>
</svg>