<?xml version="1.0" encoding="utf-8"?>
<svg viewBox="0 0 151 150" xmlns="http://www.w3.org/2000/svg">
  <path style="fill: rgb(251, 139, 77); stroke: rgb(251, 139, 77);" d="M 17.631 57.011 C 19.347 55.374 20.882 53.511 22.822 52.147 C 25.24 50.447 28.216 49.686 30.716 48.109 C 33.48 46.365 36.295 44.562 38.506 42.155 C 40.591 39.885 42.791 37.364 43.478 34.36 C 43.968 32.219 43.307 29.929 42.703 27.817 C 41.983 25.296 39.934 23.255 39.361 20.697 C 38.762 18.026 38.16 14.952 39.345 12.484 C 40.27 10.558 42.485 9.52 44.354 8.485 C 46.384 7.362 48.607 6.337 50.922 6.182 C 52.778 6.058 54.74 6.447 56.387 7.312 C 58.223 8.277 59.579 10.001 60.882 11.615 C 62.075 13.093 62.581 15.07 63.864 16.471 C 65.025 17.739 66.419 18.88 68.003 19.546 C 70.111 20.432 72.506 20.364 74.779 20.618 C 76.687 20.831 78.617 20.799 80.527 20.994 C 83.686 21.317 86.853 21.661 89.962 22.308 C 92.938 22.927 95.922 23.632 98.746 24.756 C 100.3 25.374 101.658 26.411 103.183 27.097 C 105.046 27.934 106.888 29.031 108.918 29.251 C 110.461 29.418 112.062 29.1 113.525 28.584 C 115.598 27.854 117.25 26.24 119.201 25.229 C 121.006 24.293 122.738 22.901 124.764 22.728 C 126.986 22.538 129.286 23.328 131.244 24.395 C 132.494 25.076 133.469 26.2 134.38 27.294 C 135.462 28.593 136.506 29.995 137.093 31.581 C 137.714 33.259 138.081 35.117 137.866 36.894 C 137.674 38.484 136.983 40.037 136.062 41.347 C 134.467 43.617 131.943 45.063 129.866 46.902 C 128.841 47.81 127.361 48.37 126.773 49.607 C 126.023 51.187 126.622 53.103 126.592 54.852 C 126.551 57.231 126.316 59.626 126.592 61.989 C 126.797 63.748 127.117 65.533 127.816 67.16 C 128.672 69.153 130.076 70.87 131.378 72.605 C 132.485 74.079 133.9 75.308 134.976 76.805 C 136.497 78.92 137.858 81.166 138.985 83.515 C 140.398 86.461 141.776 89.495 142.399 92.702 C 142.925 95.41 142.844 98.224 142.632 100.974 C 142.408 103.879 142.238 106.91 141.047 109.569 C 139.412 113.217 136.411 116.112 133.692 119.043 C 132.062 120.8 130.163 122.285 128.36 123.864 C 126.055 125.882 123.959 128.202 121.35 129.809 C 119.558 130.913 117.509 131.54 115.536 132.273 C 108.103 135.032 100.691 138.143 92.885 139.53 C 88.128 140.375 83.22 140.503 78.403 140.133 C 71.028 139.567 63.604 138.308 56.633 135.836 C 48.696 133.022 40.87 129.291 34.301 124.021 C 27.556 118.61 22.233 111.494 17.485 104.266 C 13.549 98.274 9.698 91.932 7.991 84.969 C 6.813 80.164 6.529 74.952 7.642 70.131 C 8.222 67.62 9.657 65.332 11.193 63.263 C 12.976 60.861 15.466 59.076 17.631 57.011 Z"/>
  <path style="fill: rgb(23, 13, 9); stroke: rgb(23, 13, 9);" d="M 68.415 70.195 C 64.445 69.625 60.151 71.135 56.391 69.737 C 53.546 68.679 50.283 66.918 49.274 64.055 C 48.293 61.269 49.717 57.959 51.204 55.407 C 53.106 52.143 56.219 49.473 59.608 47.804 C 61.958 46.647 64.726 46.223 67.34 46.4 C 70.322 46.602 73.255 47.722 75.867 49.176 C 77.013 49.814 77.667 51.204 78.875 51.715 C 80.245 52.294 81.828 52.1 83.314 52.157 C 84.565 52.205 85.835 51.854 87.068 52.071 C 88.251 52.279 89.354 52.835 90.424 53.38 C 91.849 54.106 92.928 55.521 94.463 55.971 C 96.028 56.43 97.728 56.05 99.357 55.971 C 101.501 55.867 103.621 55.26 105.766 55.348 C 107.627 55.425 109.514 55.709 111.264 56.345 C 112.952 56.959 114.494 57.954 115.944 59.013 C 117.158 59.9 118.462 60.797 119.264 62.069 C 120.303 63.718 120.603 65.747 120.981 67.659 C 121.297 69.254 121.357 70.892 121.432 72.517 C 121.478 73.517 121.649 74.543 121.432 75.521 C 121.186 76.627 120.832 77.838 119.994 78.6 C 119.176 79.343 117.93 79.399 116.869 79.709 C 115.421 80.132 113.966 80.66 112.459 80.727 C 110.711 80.804 108.978 80.337 107.261 80.002 C 94.154 77.441 81.634 72.094 68.415 70.195 Z"/>
  <path style="stroke: rgb(255, 255, 139); fill: rgb(255, 255, 139);" d="M 98.305 65.79 C 96.585 65.947 94.714 65.781 93.186 66.585 C 91.955 67.232 90.779 68.305 90.323 69.619 C 89.999 70.553 90.054 71.739 90.584 72.573 C 91.243 73.609 92.587 74.094 93.77 74.424 C 94.913 74.743 96.143 74.453 97.329 74.487 C 98.003 74.506 98.689 74.434 99.35 74.567 C 100.273 74.753 101.136 75.171 101.995 75.556 C 103.274 76.129 104.399 77.033 105.715 77.516 C 107.066 78.012 108.51 78.691 109.93 78.454 C 111.18 78.245 112.582 77.587 113.171 76.465 C 113.806 75.256 113.429 73.653 112.951 72.374 C 112.502 71.172 111.536 70.2 110.586 69.338 C 109.345 68.212 107.878 67.315 106.341 66.649 C 105.146 66.131 103.851 65.818 102.557 65.672 C 101.148 65.513 99.717 65.661 98.305 65.79 Z"/>
  <path style="fill: rgb(209, 114, 62); stroke: rgb(209, 114, 62);" d="M 52.766 111.026 C 52.766 111.026 58.017 119.544 61.303 123.285 C 64.037 126.397 66.605 130.237 70.502 131.642 C 73.932 132.878 77.909 132.098 81.428 131.144 C 85.695 129.987 89.547 127.509 93.169 124.973 C 95.445 123.379 99.337 119.366 99.337 119.366 L 52.766 111.026 Z"/>
  <path style="stroke: rgb(238, 69, 109); fill: rgb(238, 69, 109);" d="M 43.604 88.85 C 45.127 85.591 47.74 82.889 50.395 80.462 C 53.453 77.666 56.902 75.153 60.716 73.535 C 64.996 71.72 69.707 70.803 74.352 70.611 C 78.868 70.424 83.44 71.159 87.801 72.35 C 92.571 73.653 97.421 75.307 101.437 78.191 C 104.491 80.384 106.857 83.48 108.959 86.598 C 111.189 89.905 113.138 93.504 114.234 97.339 C 115.488 101.725 116.977 106.605 115.605 110.955 C 114.156 115.55 110.358 119.524 106.169 121.906 C 100.656 125.041 93.774 125.288 87.433 125.209 C 79.751 125.114 71.995 123.446 64.841 120.645 C 58.352 118.104 51.713 114.889 46.985 109.769 C 44.28 106.839 42.14 103.04 41.596 99.09 C 41.121 95.644 42.132 92.001 43.604 88.85 Z"/>
  <path style="fill: rgb(9, 0, 0); stroke: rgb(9, 0, 0);" d="M 66.711 85.811 C 64.16 87.653 63.05 91.009 61.926 93.948 C 60.725 97.088 59.245 100.544 59.932 103.835 C 60.28 105.501 61.159 107.919 62.858 108.018 C 65.771 108.187 67.198 103.993 68.673 101.475 C 70.341 98.628 71.197 95.342 71.91 92.12 C 72.46 89.635 74.587 86.224 72.692 84.525 C 71.174 83.164 68.364 84.617 66.711 85.811 Z"/>
  <path style="stroke: rgb(9, 0, 0); fill: rgb(9, 0, 0);" d="M 88.112 99.415 C 88.64 96.817 88.846 93.773 90.724 91.902 C 91.81 90.82 93.709 89.712 95.075 90.408 C 97.096 91.438 96.837 94.659 97.069 96.916 C 97.316 99.316 96.885 101.759 96.403 104.123 C 95.851 106.826 95.611 109.859 93.875 112.003 C 92.762 113.378 90.982 115.088 89.271 114.64 C 88.042 114.318 87.612 112.604 87.315 111.369 C 86.381 107.486 87.316 103.328 88.112 99.415 Z"/>
  <path style="fill: rgb(255, 255, 139); stroke: rgb(255, 255, 139);" d="M 62.936 67.676 C 61.226 67.665 59.435 67.617 57.855 66.962 C 56.887 66.56 55.839 65.991 55.345 65.067 C 54.772 63.996 54.711 62.568 55.134 61.429 C 55.367 60.802 55.966 60.347 56.53 59.987 C 57.879 59.127 59.507 58.778 61.065 58.415 C 63.066 57.95 65.136 57.463 67.181 57.656 C 69.047 57.832 70.885 58.487 72.533 59.38 C 73.502 59.905 74.333 60.674 75.102 61.464 C 75.885 62.268 76.663 63.125 77.155 64.134 C 77.577 65 77.916 65.97 77.876 66.933 C 77.847 67.623 77.773 68.512 77.195 68.889 C 76.249 69.506 74.913 68.897 73.819 68.617 C 73.056 68.422 72.415 67.885 71.663 67.653 C 70.877 67.411 70.055 67.284 69.235 67.218 C 68.201 67.135 67.157 67.196 66.122 67.27 C 65.054 67.347 64.007 67.683 62.936 67.676 Z"/>
  <path style="stroke: rgb(165, 13, 12); fill: rgb(165, 13, 12);" d="M 49.731 26.115 L 45.091 20.331 L 43.03 15.983 C 43.03 15.983 46.585 15.076 48.344 14.556 C 49.435 14.233 50.62 14.099 51.591 13.506 C 52.691 12.835 54.331 10.779 54.331 10.779 C 54.331 10.779 57.335 13.306 58.539 14.839 C 59.284 15.788 59.777 16.91 60.363 17.965 C 60.767 18.692 61.528 20.172 61.528 20.172 L 49.731 26.115 Z"/>
  <path style="fill: rgb(165, 13, 12); stroke: rgb(165, 13, 12);" d="M 118.853 31.598 C 118.853 31.598 121.739 36.176 123.335 38.358 C 124.507 39.96 127.067 42.997 127.067 42.997 C 127.067 42.997 131.116 42.045 132.719 40.817 C 134.136 39.732 135.261 38.169 135.882 36.495 C 136.183 35.683 136.085 33.906 136.085 33.906 C 136.085 33.906 133.409 33.329 132.32 32.56 C 131.176 31.753 130.429 30.48 129.664 29.307 C 129.002 28.291 128.014 26.065 128.014 26.065 C 128.014 26.065 125.162 27.417 123.807 28.222 C 122.089 29.243 118.853 31.598 118.853 31.598 Z"/>
</svg>